<svg width="14" height="14" viewBox="0 0 14 14" fill="none" xmlns="http://www.w3.org/2000/svg">
<g id="calories">
<path id="Vector" d="M10.3016 6.53333C10.1674 6.35833 10.0041 6.20667 9.85241 6.055C9.46157 5.705 9.01824 5.45417 8.64491 5.08667C7.77574 4.235 7.58324 2.82917 8.13741 1.75C7.58324 1.88417 7.09907 2.1875 6.68491 2.52C5.17407 3.73333 4.57907 5.87417 5.29074 7.71167C5.31407 7.77 5.33741 7.82833 5.33741 7.90417C5.33741 8.0325 5.24991 8.14917 5.13324 8.19583C4.99907 8.25417 4.85907 8.21917 4.74824 8.12583C4.71513 8.0981 4.68744 8.06448 4.66657 8.02667C4.00741 7.1925 3.90241 5.99667 4.34574 5.04C3.37157 5.83333 2.84074 7.175 2.91657 8.44083C2.95157 8.7325 2.98657 9.02417 3.08574 9.31583C3.16741 9.66583 3.32491 10.0158 3.49991 10.325C4.12991 11.3342 5.22074 12.0575 6.39324 12.2033C7.64157 12.3608 8.97741 12.1333 9.93407 11.27C11.0016 10.3017 11.3749 8.75 10.8266 7.42L10.7507 7.26833C10.6282 7 10.3016 6.53333 10.3016 6.53333ZM8.45824 10.2083C8.29491 10.3483 8.02657 10.5 7.81657 10.5583C7.16324 10.7917 6.50991 10.465 6.12491 10.08C6.81907 9.91667 7.23324 9.40333 7.35574 8.88417C7.45491 8.4175 7.26824 8.0325 7.19241 7.58333C7.12241 7.15167 7.13407 6.78417 7.29157 6.38167C7.40241 6.60333 7.51907 6.825 7.65907 7C8.10824 7.58333 8.81407 7.84 8.96574 8.63333C8.98907 8.715 9.00074 8.79667 9.00074 8.88417C9.01824 9.3625 8.80824 9.8875 8.45824 10.2083Z" fill="#E63D3D"/>
</g>
</svg>
