<svg width="25" height="24" viewBox="0 0 25 24" fill="none" xmlns="http://www.w3.org/2000/svg">
<g id="bar-line-chart">
<path id="Icon" d="M20.6667 20V13M12.6667 20V10M4.66675 20L4.66675 16M14.0734 5.0275L19.2419 6.96567M11.4655 5.40092L5.86698 9.59983M21.7274 6.43934C22.3132 7.02513 22.3132 7.97487 21.7274 8.56066C21.1416 9.14645 20.1919 9.14645 19.6061 8.56066C19.0203 7.97487 19.0203 7.02513 19.6061 6.43934C20.1919 5.85355 21.1416 5.85355 21.7274 6.43934ZM5.72741 9.43934C6.31319 10.0251 6.31319 10.9749 5.72741 11.5607C5.14162 12.1464 4.19187 12.1464 3.60609 11.5607C3.0203 10.9749 3.0203 10.0251 3.60609 9.43934C4.19187 8.85355 5.14162 8.85355 5.72741 9.43934ZM13.7274 3.43934C14.3132 4.02513 14.3132 4.97487 13.7274 5.56066C13.1416 6.14645 12.1919 6.14645 11.6061 5.56066C11.0203 4.97487 11.0203 4.02513 11.6061 3.43934C12.1919 2.85355 13.1416 2.85355 13.7274 3.43934Z" stroke="#667085" stroke-width="2" stroke-linecap="round" stroke-linejoin="round"/>
</g>
</svg>
