<svg width="20" height="20" viewBox="0 0 20 20" fill="none" xmlns="http://www.w3.org/2000/svg">
<g id="distance">
<path id="Vector" d="M10 16C9.88961 16 9.77922 15.9825 9.66883 15.9474C9.55844 15.9123 9.45697 15.8553 9.36443 15.7765C8.86321 15.3295 8.35494 14.8316 7.83963 14.283C7.32479 13.7348 6.85739 13.1668 6.43743 12.5789C6.01748 11.9911 5.67268 11.3912 5.40305 10.7792C5.13341 10.1672 4.99907 9.56983 5 8.98701C5 7.54113 5.48525 6.3486 6.45575 5.40943C7.42672 4.46981 8.60814 4 10 4C11.3919 4 12.5733 4.46981 13.5443 5.40943C14.5148 6.3486 15 7.54113 15 8.98701C15 9.56983 14.8657 10.1652 14.597 10.7731C14.3283 11.3805 13.9858 11.9802 13.5696 12.5721C13.1539 13.1645 12.6886 13.7327 12.1738 14.2768C11.6589 14.8209 11.1504 15.3165 10.6483 15.7635C10.5585 15.8423 10.4566 15.9016 10.3424 15.9412C10.2278 15.9804 10.1134 16 9.9993 16M10.0021 9.96787C10.3154 9.96787 10.5832 9.85942 10.8054 9.64252C11.0271 9.42606 11.138 9.16564 11.138 8.86124C11.138 8.55685 11.0262 8.29711 10.8026 8.08202C10.579 7.86694 10.3105 7.7594 9.99718 7.7594C9.68386 7.7594 9.41611 7.86785 9.19391 8.08476C8.97172 8.30166 8.86086 8.56209 8.86133 8.86603C8.8618 9.16997 8.97337 9.42971 9.19603 9.64525C9.41869 9.86079 9.68739 9.96833 10.0021 9.96787Z" fill="#494949"/>
</g>
</svg>
