<svg width="17" height="16" viewBox="0 0 17 16" fill="none" xmlns="http://www.w3.org/2000/svg">
<g id="done">
<path id="Vector" d="M8.01643 10.6053L12.2804 6.34133L11.8084 5.86933L8.01643 9.66133L6.11643 7.76133L5.64443 8.23333L8.01643 10.6053ZM8.9771 14C8.14776 14 7.36776 13.8427 6.6371 13.528C5.90688 13.2129 5.27154 12.7853 4.7311 12.2453C4.19065 11.7053 3.76288 11.0707 3.44776 10.3413C3.13265 9.612 2.9751 8.83222 2.9751 8.002C2.9751 7.17178 3.13265 6.39178 3.44776 5.662C3.76243 4.93178 4.18932 4.29644 4.72843 3.756C5.26754 3.21556 5.90243 2.78778 6.6331 2.47267C7.36376 2.15756 8.14376 2 8.9731 2C9.80243 2 10.5824 2.15756 11.3131 2.47267C12.0433 2.78733 12.6787 3.21444 13.2191 3.754C13.7595 4.29356 14.1873 4.92844 14.5024 5.65867C14.8175 6.38889 14.9751 7.16867 14.9751 7.998C14.9751 8.82733 14.8178 9.60733 14.5031 10.338C14.1884 11.0687 13.7609 11.704 13.2204 12.244C12.68 12.784 12.0453 13.2118 11.3164 13.5273C10.5875 13.8429 9.80776 14.0004 8.9771 14Z" fill="#110C11"/>
</g>
</svg>
