<svg width="17" height="16" viewBox="0 0 17 16" fill="none" xmlns="http://www.w3.org/2000/svg">
<g id="heart rate">
<path id="Vector" d="M11.828 3C12.7 3 13.4384 3.30194 14.0433 3.90581C14.6482 4.50968 14.9504 5.23842 14.95 6.09203C14.95 6.34257 14.9197 6.59231 14.8593 6.84124C14.7988 7.09018 14.7022 7.33088 14.5693 7.56336H11.1206L9.92728 5.88906H9.30395L8.18595 8.97627L7.12062 7.56336H3.32995C3.19751 7.33088 3.10084 7.09199 3.03995 6.84666C2.97995 6.60174 2.94995 6.35542 2.94995 6.10768C2.94995 5.24323 3.24951 4.50927 3.84862 3.90581C4.44773 3.30234 5.18328 3.0004 6.05528 3C6.51128 3 6.94995 3.08392 7.37128 3.25175C7.79217 3.41918 8.16884 3.66189 8.50128 3.97988L8.94995 4.4087L9.37328 4.00337C9.71151 3.67735 10.0933 3.42861 10.5186 3.25717C10.944 3.08572 11.3804 3 11.828 3ZM8.93328 13L4.14728 8.64623C4.06373 8.57075 3.98328 8.49305 3.90595 8.41315C3.82906 8.33406 3.75862 8.25155 3.69462 8.16562H6.76328L7.98995 9.83209H8.60995L9.71462 6.72982L10.776 8.16562H14.202C14.138 8.24914 14.0675 8.33064 13.9906 8.41014C13.9137 8.48964 13.8346 8.56713 13.7533 8.64262L8.93328 13Z" fill="#F97316"/>
</g>
</svg>
