<svg width="24" height="24" viewBox="0 0 24 24" fill="none" xmlns="http://www.w3.org/2000/svg">
<g id="sleep">
<rect width="24" height="24" rx="12" fill="#F1B9F1" fill-opacity="0.16"/>
<rect x="0.125" y="0.125" width="23.75" height="23.75" rx="11.875" stroke="#110C11" stroke-opacity="0.04" stroke-width="0.25"/>
<path id="Vector" d="M12.1922 18C11.3358 18 10.5321 17.8383 9.78134 17.5148C9.03056 17.1914 8.3746 16.7489 7.81344 16.1872C7.25228 15.6256 6.80975 14.9694 6.48585 14.2187C6.16195 13.4679 6 12.6642 6 11.8078C6 10.4831 6.38106 9.28891 7.14318 8.22512C7.9053 7.16133 8.91148 6.41962 10.1617 6C10.1145 7.06153 10.2772 8.08245 10.6496 9.06277C11.0216 10.0431 11.5841 10.9096 12.3372 11.6621C13.0902 12.4152 13.9567 12.9779 14.9365 13.3504C15.9164 13.7228 16.9376 13.8855 18 13.8383C17.5826 15.0876 16.8414 16.0936 15.7762 16.8561C14.7111 17.6187 13.5164 18 12.1922 18Z" fill="#CD10C6"/>
</g>
</svg>
