<svg width="18" height="18" viewBox="0 0 18 18" fill="none" xmlns="http://www.w3.org/2000/svg">
<g id="steps">
<path id="Vector" d="M4.55765 7.55831H3.02075C3.04842 7.41759 3.09193 7.28116 3.15128 7.14901C3.21108 7.01687 3.28694 6.88743 3.37887 6.76069L5.96871 3.27663C6.06376 3.14764 6.18871 3.0624 6.34356 3.0209C6.49886 2.97986 6.64835 2.99926 6.79205 3.07908L7.274 3.31587C7.39672 3.37901 7.48776 3.46357 7.54711 3.56956C7.60691 3.6751 7.63681 3.79258 7.63681 3.92203V6.21474L9.71189 5.67218C9.8837 5.62527 10.0443 5.64579 10.1938 5.73374C10.3433 5.82169 10.448 5.95113 10.5078 6.12206L11.6471 9.58042L14.6077 12.5727C14.7617 12.7287 14.8657 12.8974 14.9197 13.0787C14.9732 13.26 15 13.4494 15 13.647C15 13.9861 14.8907 14.2802 14.672 14.5291C14.4533 14.7781 14.1782 14.9208 13.8467 14.9574H13.4216L6.63541 8.39719C6.34624 8.12703 6.0236 7.91957 5.66748 7.77479C5.31137 7.63002 4.94143 7.55786 4.55765 7.55831ZM10.4147 15C10.1657 15 9.92698 14.9553 9.6985 14.866C9.47091 14.7767 9.26296 14.6453 9.07464 14.4716L3.63591 9.48232C3.44982 9.3168 3.30479 9.1258 3.20081 8.90931C3.09684 8.69283 3.0299 8.468 3 8.23482H4.55765C4.85709 8.23482 5.14827 8.28872 5.43119 8.39651C5.71412 8.50385 5.96313 8.66622 6.17822 8.8836L12.4885 15H10.4147Z" fill="#3D9B26"/>
</g>
</svg>
