<svg width="18" height="18" viewBox="0 0 18 18" fill="none" xmlns="http://www.w3.org/2000/svg">
<g id="time">
<path id="Vector" d="M7.36563 3.61538V3H10.6344V3.61538H7.36563ZM8.6875 10.456H9.3125V7.23692H8.6875V10.456ZM9 15C8.30917 15 7.66062 14.8716 7.05438 14.6148C6.44813 14.3579 5.91792 14.0059 5.46375 13.5588C5.00958 13.1116 4.65208 12.5893 4.39125 11.992C4.13042 11.3947 4 10.7563 4 10.0769C4 9.39754 4.13042 8.75897 4.39125 8.16123C4.65208 7.56349 5.00958 7.04144 5.46375 6.59508C5.91792 6.14872 6.44833 5.79672 7.055 5.53908C7.66167 5.28144 8.31 5.15303 9 5.15385C9.60583 5.15385 10.1917 5.26051 10.7575 5.47385C11.3233 5.68718 11.8425 5.98851 12.315 6.37785L12.9975 5.70523L13.44 6.14092L12.7575 6.81292C13.1533 7.27856 13.4594 7.78995 13.6756 8.34708C13.8919 8.90421 14 9.48082 14 10.0769C14 10.7571 13.8696 11.3957 13.6088 11.9926C13.3479 12.5895 12.9904 13.1116 12.5363 13.5588C12.0821 14.0059 11.5517 14.3579 10.945 14.6148C10.3383 14.8716 9.69 15 9 15Z" fill="#5788E6"/>
</g>
</svg>
