<svg width="24" height="24" viewBox="0 0 24 24" fill="none" xmlns="http://www.w3.org/2000/svg">
<g id="wake-up">
<rect width="24" height="24" rx="12" fill="#F1B9F1" fill-opacity="0.16"/>
<rect x="0.125" y="0.125" width="23.75" height="23.75" rx="11.875" stroke="#110C11" stroke-opacity="0.04" stroke-width="0.25"/>
<path id="Vector" d="M12 7.37804C11.9002 7.37804 11.8166 7.34431 11.7491 7.27685C11.6817 7.20939 11.6482 7.12599 11.6486 7.02667V5.35134C11.6486 5.25155 11.6824 5.16793 11.7498 5.10046C11.8173 5.033 11.9009 4.99927 12.0007 4.99927C12.1005 4.99927 12.1839 5.033 12.2509 5.10046C12.3179 5.16793 12.3514 5.25132 12.3514 5.35064V7.02667C12.3514 7.12646 12.3176 7.20985 12.2502 7.27685C12.1827 7.34384 12.0991 7.37757 11.9993 7.37804M15.2621 8.73785C15.1965 8.67226 15.1661 8.59214 15.1708 8.49751C15.1754 8.40381 15.2106 8.31808 15.2762 8.24031L16.4357 7.04986C16.506 6.97209 16.5901 6.93321 16.688 6.93321C16.7859 6.93321 16.8742 6.97303 16.9529 7.05267C17.026 7.12576 17.0625 7.20775 17.0625 7.29863C17.0625 7.38952 17.0251 7.47244 16.9501 7.5474L15.7597 8.73785C15.6847 8.8128 15.6018 8.85028 15.5109 8.85028C15.42 8.85028 15.3371 8.8128 15.2621 8.73785ZM16.9733 12.3513C16.8735 12.3513 16.7901 12.3176 16.7231 12.2501C16.6561 12.1827 16.6224 12.0991 16.6219 11.9993C16.6215 11.8995 16.6552 11.8161 16.7231 11.7491C16.791 11.6821 16.8744 11.6486 16.9733 11.6486H18.6493C18.7486 11.6486 18.832 11.6823 18.8995 11.7498C18.967 11.8173 19.0005 11.9009 19 12.0007C18.9995 12.1005 18.966 12.1838 18.8995 12.2508C18.833 12.3178 18.7494 12.3513 18.6486 12.3513H16.9733ZM11.9993 19.0007C11.9 19.0007 11.8166 18.9669 11.7491 18.8995C11.6817 18.832 11.6482 18.7484 11.6486 18.6486V16.9866C11.6486 16.8873 11.6824 16.8039 11.7498 16.7364C11.8173 16.669 11.9009 16.6352 12.0007 16.6352C12.1005 16.6352 12.1839 16.669 12.2509 16.7364C12.3179 16.8039 12.3514 16.8873 12.3514 16.9866V18.6493C12.3514 18.7486 12.3176 18.832 12.2502 18.8995C12.1827 18.9669 12.0991 19.0011 11.9993 19.0007ZM8.25439 8.73855L7.0506 7.56497C6.97283 7.49517 6.93395 7.41084 6.93395 7.31199C6.93395 7.21313 6.97283 7.12599 7.0506 7.05057C7.12556 6.98498 7.21129 6.95218 7.3078 6.95218C7.40431 6.95218 7.48419 6.98498 7.54744 7.05057L8.75193 8.25436C8.81752 8.31714 8.85032 8.39702 8.85032 8.49399C8.85032 8.59097 8.81846 8.67249 8.75475 8.73855C8.68447 8.80414 8.60295 8.83693 8.51019 8.83693C8.41743 8.83693 8.33216 8.80414 8.25439 8.73855ZM16.4498 16.9508L15.2762 15.7603C15.2106 15.683 15.1754 15.5973 15.1708 15.5031C15.1661 15.409 15.1961 15.3288 15.2607 15.2628C15.3254 15.1967 15.405 15.1639 15.4996 15.1644C15.5943 15.1649 15.6812 15.2024 15.7604 15.2768L16.9508 16.4497C17.0192 16.5153 17.0527 16.5959 17.0513 16.6915C17.0499 16.787 17.015 16.8737 16.9466 16.9515C16.8716 17.0283 16.7859 17.0667 16.6894 17.0667C16.5929 17.0667 16.513 17.0281 16.4498 16.9508ZM5.35137 12.3513C5.25159 12.3513 5.16796 12.3176 5.1005 12.2501C5.03303 12.1827 4.99954 12.0991 5 11.9993C5.00047 11.8995 5.03397 11.8161 5.1005 11.7491C5.16702 11.6821 5.25065 11.6486 5.35137 11.6486H7.02671C7.1265 11.6486 7.20989 11.6823 7.27688 11.7498C7.34388 11.8173 7.37761 11.9009 7.37808 12.0007C7.37855 12.1005 7.34481 12.1838 7.27688 12.2508C7.20895 12.3178 7.12556 12.3513 7.02671 12.3513H5.35137ZM7.06325 16.9501C6.99766 16.8751 6.96252 16.7901 6.95784 16.695C6.95315 16.5999 6.98361 16.5193 7.0492 16.4532L8.22699 15.2761C8.30195 15.2012 8.38393 15.1637 8.47295 15.1637C8.56196 15.1637 8.64582 15.2 8.72453 15.2726C8.80183 15.3523 8.84048 15.4392 8.84048 15.5333C8.84048 15.6275 8.80183 15.7132 8.72453 15.7905L7.56501 16.9501C7.48724 17.0278 7.39986 17.0667 7.30288 17.0667C7.20591 17.0667 7.12603 17.0278 7.06325 16.9501ZM12.0035 15.5137C11.0281 15.5137 10.1979 15.1724 9.513 14.4898C8.82807 13.8072 8.48583 12.9784 8.4863 12.0035C8.48677 11.0285 8.82806 10.1981 9.51019 9.51227C10.1923 8.82639 11.0211 8.48439 11.9965 8.48626C12.9719 8.48814 13.8021 8.82944 14.487 9.51016C15.1719 10.1909 15.5142 11.0196 15.5137 11.9965C15.5132 12.9733 15.1719 13.8034 14.4898 14.487C13.8077 15.1705 12.9789 15.5127 12.0035 15.5137Z" fill="#FFDD2B"/>
</g>
</svg>
